<?xml version="1.0" encoding="UTF-8"?>
<svg id="Layer_1" data-name="Layer 1" xmlns="http://www.w3.org/2000/svg" viewBox="0 0 1080 1080">
  <defs>
    <style>
      .cls-1 {
        fill: #fff;
      }
    </style>
  </defs>
  <g>
    <path class="cls-1" d="M342.53,430.17c-1.19-3.81-.92-11.44-.53-15.51,2.4-25.28,19.22-44.69,43.2-52.08,16.92-5.3,35.24-3.66,50.95,4.56,12.9,6.83,21.42,18.15,28.08,30.88,28.58,54.62,78.8,89.26,132.69,115.94,14.17,7.01,30.71,14.97,44.01,23.2,8.31,4.4,19.33,10.85,26.88,16.51,37.43,25.76,79.36,64.4,70.45,114.99-7.94,45.05-67.07,65.32-103.03,39.43-16.58-11.71-23.96-30.05-35.58-46.08-8.97-12.14-19.17-23.33-30.43-33.39-22.3-19.96-43.91-32.17-70.53-45.71-5.19-2.64-28.76-13.81-32.28-16.32-5.84-2.42-12.81-6.6-18.42-9.64-48.26-26.17-101.38-67.11-105.46-126.76v-.02Z"/>
    <path class="cls-1" d="M667.82,553.65c-1.16.32-2.62.71-3.79.31-16.09-5.58-30.93-9.29-47.74-12.16-4.25-.82-20.46-2.49-22.37-3.28-4.95-.04-11.05-.88-16.1-1.24-41.25-3-83.42-5.82-123.28-17.36-43.46-12.58-87.46-34.87-107.11-78.04-1.43-3.14-3.06-9.32-4.9-11.71,4.09,59.65,57.2,100.6,105.46,126.76,5.61,3.04,12.58,7.22,18.42,9.64,3.52,2.51,27.09,13.68,32.28,16.32,26.62,13.54,48.24,25.75,70.53,45.71,11.26,10.06,21.46,21.25,30.43,33.39,11.62,16.03,19.01,34.37,35.58,46.08,35.97,25.9,95.1,5.62,103.03-39.43,8.91-50.58-33.02-89.22-70.45-114.99h0Z"/>
  </g>
  <g>
    <path class="cls-1" d="M476.59,312.97c-1.19-3.81-.92-11.44-.53-15.51,2.4-25.28,19.22-44.69,43.2-52.08,16.92-5.3,35.24-3.66,50.95,4.56,12.9,6.83,21.42,18.15,28.08,30.88,28.58,54.62,78.8,89.26,132.69,115.94,14.17,7.01,30.71,14.97,44.01,23.2,8.31,4.4,19.33,10.85,26.88,16.51,37.43,25.76,79.36,64.4,70.45,114.99-7.94,45.05-67.07,65.32-103.03,39.43-16.58-11.71-23.96-30.05-35.58-46.08-8.97-12.14-19.17-23.33-30.43-33.39-22.3-19.96-43.91-32.17-70.53-45.71-5.19-2.64-28.76-13.81-32.28-16.32-5.84-2.42-12.81-6.6-18.42-9.64-48.26-26.17-101.38-67.11-105.46-126.76v-.02Z"/>
    <path class="cls-1" d="M801.89,436.45c-1.16.32-2.62.71-3.79.31-16.09-5.58-30.93-9.29-47.74-12.16-4.25-.82-20.46-2.49-22.37-3.28-4.95-.04-11.05-.88-16.1-1.24-41.25-3-83.42-5.82-123.28-17.36-43.46-12.58-87.46-34.87-107.11-78.04-1.43-3.14-3.06-9.32-4.9-11.71,4.09,59.65,57.2,100.6,105.46,126.76,5.61,3.04,12.58,7.22,18.42,9.64,3.52,2.51,27.09,13.68,32.28,16.32,26.62,13.54,48.24,25.75,70.53,45.71,11.26,10.06,21.46,21.25,30.43,33.39,11.62,16.03,19.01,34.37,35.58,46.08,35.97,25.9,95.1,5.62,103.03-39.43,8.91-50.58-33.02-89.22-70.45-114.99h0Z"/>
  </g>
  <g>
    <path class="cls-1" d="M207.32,548.37c-1.19-3.81-.92-11.44-.53-15.51,2.4-25.28,19.22-44.69,43.2-52.08,16.92-5.3,35.24-3.66,50.95,4.56,12.9,6.83,21.42,18.15,28.08,30.88,28.58,54.62,78.8,89.26,132.69,115.94,14.17,7.01,30.71,14.97,44.01,23.2,8.31,4.4,19.33,10.85,26.88,16.51,37.43,25.76,79.36,64.4,70.45,114.99-7.94,45.05-67.07,65.32-103.03,39.43-16.58-11.71-23.96-30.05-35.58-46.08-8.97-12.14-19.17-23.33-30.43-33.39-22.3-19.96-43.91-32.17-70.53-45.71-5.19-2.64-28.76-13.81-32.28-16.32-5.84-2.42-12.81-6.6-18.42-9.64-48.26-26.17-101.38-67.11-105.46-126.76v-.02Z"/>
    <path class="cls-1" d="M532.61,671.85c-1.16.32-2.62.71-3.79.31-16.09-5.58-30.93-9.29-47.74-12.16-4.25-.82-20.46-2.49-22.37-3.28-4.95-.04-11.05-.88-16.1-1.24-41.25-3-83.42-5.82-123.28-17.36-43.46-12.58-87.46-34.87-107.11-78.04-1.43-3.14-3.06-9.32-4.9-11.71,4.09,59.65,57.2,100.6,105.46,126.76,5.61,3.04,12.58,7.22,18.42,9.64,3.52,2.51,27.09,13.68,32.28,16.32,26.62,13.54,48.24,25.75,70.53,45.71,11.26,10.06,21.46,21.25,30.43,33.39,11.62,16.03,19.01,34.37,35.58,46.08,35.97,25.9,95.1,5.62,103.03-39.43,8.91-50.58-33.02-89.22-70.45-114.99h0Z"/>
  </g>
</svg>