<?xml version="1.0" encoding="UTF-8"?>
<svg id="Layer_1" data-name="Layer 1" xmlns="http://www.w3.org/2000/svg" xmlns:xlink="http://www.w3.org/1999/xlink" viewBox="0 0 1080 1080">
  <defs>
    <style>
      .cls-1 {
        fill: url(#linear-gradient-5);
      }

      .cls-2 {
        fill: url(#linear-gradient-6);
      }

      .cls-3 {
        fill: url(#linear-gradient-4);
      }

      .cls-4 {
        fill: url(#linear-gradient-3);
      }

      .cls-5 {
        fill: url(#linear-gradient-2);
      }

      .cls-6 {
        fill: url(#linear-gradient);
      }
    </style>
    <linearGradient id="linear-gradient" x1="548.67" y1="521.42" x2="489.16" y2="753.71" gradientTransform="translate(16.61 1104.57) rotate(-1.86) scale(1 -1)" gradientUnits="userSpaceOnUse">
      <stop offset="0" stop-color="#db3d24"/>
      <stop offset=".08" stop-color="#e04923"/>
      <stop offset=".24" stop-color="#ed6a22"/>
      <stop offset=".39" stop-color="#fc8f22"/>
      <stop offset=".51" stop-color="#fcb241"/>
      <stop offset=".63" stop-color="#fdcf5b"/>
      <stop offset=".76" stop-color="#fde46e"/>
      <stop offset=".88" stop-color="#fdf079"/>
      <stop offset="1" stop-color="#fef57d"/>
    </linearGradient>
    <linearGradient id="linear-gradient-2" x1="554.53" y1="446.7" x2="522.13" y2="692.22" gradientTransform="translate(-18.54 23.14) rotate(-1.86)" gradientUnits="userSpaceOnUse">
      <stop offset="0" stop-color="#c72326"/>
      <stop offset=".2" stop-color="#cc2925"/>
      <stop offset=".47" stop-color="#da3a23"/>
      <stop offset=".58" stop-color="#e24322"/>
      <stop offset="1" stop-color="#fcba56"/>
    </linearGradient>
    <linearGradient id="linear-gradient-3" x1="686.47" y1="634.2" x2="626.96" y2="866.49" xlink:href="#linear-gradient"/>
    <linearGradient id="linear-gradient-4" x1="692.33" y1="333.92" x2="659.93" y2="579.44" xlink:href="#linear-gradient-2"/>
    <linearGradient id="linear-gradient-5" x1="409.69" y1="407.67" x2="350.18" y2="639.97" xlink:href="#linear-gradient"/>
    <linearGradient id="linear-gradient-6" x1="319.87" y1="487.67" x2="524.93" y2="889.1" xlink:href="#linear-gradient-2"/>
  </defs>
  <rect width="1080" height="1080"/>
  <g>
    <g>
      <path class="cls-6" d="M342.53,430.17c-1.19-3.81-.92-11.44-.53-15.51,2.4-25.28,19.22-44.69,43.2-52.08,16.92-5.3,35.24-3.66,50.95,4.56,12.9,6.83,21.42,18.15,28.08,30.88,28.58,54.62,78.8,89.26,132.69,115.94,14.17,7.01,30.71,14.97,44.01,23.2,8.31,4.4,19.33,10.85,26.88,16.51,37.43,25.76,79.36,64.4,70.45,114.99-7.94,45.05-67.07,65.32-103.03,39.43-16.58-11.71-23.96-30.05-35.58-46.08-8.97-12.14-19.17-23.33-30.43-33.39-22.3-19.96-43.91-32.17-70.53-45.71-5.19-2.64-28.76-13.81-32.28-16.32-5.84-2.42-12.81-6.6-18.42-9.64-48.26-26.17-101.38-67.11-105.46-126.76Z"/>
      <path class="cls-5" d="M667.82,553.65c-1.16.32-2.62.71-3.79.31-16.09-5.58-30.93-9.29-47.74-12.16-4.25-.82-20.46-2.49-22.37-3.28-4.95-.04-11.05-.88-16.1-1.24-41.25-3-83.42-5.82-123.28-17.36-43.46-12.58-87.46-34.87-107.11-78.04-1.43-3.14-3.06-9.32-4.9-11.71,4.09,59.65,57.2,100.6,105.46,126.76,5.61,3.04,12.58,7.22,18.42,9.64,3.52,2.51,27.09,13.68,32.28,16.32,26.62,13.54,48.24,25.75,70.53,45.71,11.26,10.06,21.46,21.25,30.43,33.39,11.62,16.03,19.01,34.37,35.58,46.08,35.97,25.9,95.1,5.62,103.03-39.43,8.91-50.58-33.02-89.22-70.45-114.99Z"/>
    </g>
    <g>
      <path class="cls-4" d="M476.59,312.97c-1.19-3.81-.92-11.44-.53-15.51,2.4-25.28,19.22-44.69,43.2-52.08,16.92-5.3,35.24-3.66,50.95,4.56,12.9,6.83,21.42,18.15,28.08,30.88,28.58,54.62,78.8,89.26,132.69,115.94,14.17,7.01,30.71,14.97,44.01,23.2,8.31,4.4,19.33,10.85,26.88,16.51,37.43,25.76,79.36,64.4,70.45,114.99-7.94,45.05-67.07,65.32-103.03,39.43-16.58-11.71-23.96-30.05-35.58-46.08-8.97-12.14-19.17-23.33-30.43-33.39-22.3-19.96-43.91-32.17-70.53-45.71-5.19-2.64-28.76-13.81-32.28-16.32-5.84-2.42-12.81-6.6-18.42-9.64-48.26-26.17-101.38-67.11-105.46-126.76Z"/>
      <path class="cls-3" d="M801.89,436.45c-1.16.32-2.62.71-3.79.31-16.09-5.58-30.93-9.29-47.74-12.16-4.25-.82-20.46-2.49-22.37-3.28-4.95-.04-11.05-.88-16.1-1.24-41.25-3-83.42-5.82-123.28-17.36-43.46-12.58-87.46-34.87-107.11-78.04-1.43-3.14-3.06-9.32-4.9-11.71,4.09,59.65,57.2,100.6,105.46,126.76,5.61,3.04,12.58,7.22,18.42,9.64,3.52,2.51,27.09,13.68,32.28,16.32,26.62,13.54,48.24,25.75,70.53,45.71,11.26,10.06,21.46,21.25,30.43,33.39,11.62,16.03,19.01,34.37,35.58,46.08,35.97,25.9,95.1,5.62,103.03-39.43,8.91-50.58-33.02-89.22-70.45-114.99Z"/>
    </g>
    <g>
      <path class="cls-1" d="M207.32,548.37c-1.19-3.81-.92-11.44-.53-15.51,2.4-25.28,19.22-44.69,43.2-52.08,16.92-5.3,35.24-3.66,50.95,4.56,12.9,6.83,21.42,18.15,28.08,30.88,28.58,54.62,78.8,89.26,132.69,115.94,14.17,7.01,30.71,14.97,44.01,23.2,8.31,4.4,19.33,10.85,26.88,16.51,37.43,25.76,79.36,64.4,70.45,114.99-7.94,45.05-67.07,65.32-103.03,39.43-16.58-11.71-23.96-30.05-35.58-46.08-8.97-12.14-19.17-23.33-30.43-33.39-22.3-19.96-43.91-32.17-70.53-45.71-5.19-2.64-28.76-13.81-32.28-16.32-5.84-2.42-12.81-6.6-18.42-9.64-48.26-26.17-101.38-67.11-105.46-126.76Z"/>
      <path class="cls-2" d="M532.61,671.85c-1.16.32-2.62.71-3.79.31-16.09-5.58-30.93-9.29-47.74-12.16-4.25-.82-20.46-2.49-22.37-3.28-4.95-.04-11.05-.88-16.1-1.24-41.25-3-83.42-5.82-123.28-17.36-43.46-12.58-87.46-34.87-107.11-78.04-1.43-3.14-3.06-9.32-4.9-11.71,4.09,59.65,57.2,100.6,105.46,126.76,5.61,3.04,12.58,7.22,18.42,9.64,3.52,2.51,27.09,13.68,32.28,16.32,26.62,13.54,48.24,25.75,70.53,45.71,11.26,10.06,21.46,21.25,30.43,33.39,11.62,16.03,19.01,34.37,35.58,46.08,35.97,25.9,95.1,5.62,103.03-39.43,8.91-50.58-33.02-89.22-70.45-114.99Z"/>
    </g>
  </g>
</svg>